#!OML:ASF F:\VICON\USERDATA\INSTALL\rory3\rory3.ASF
:FULLY-SPECIFIED
:DEGREES
310
root 1.96881 14.7147 5.89303 29.8218 28.8068 7.09804
lowerback 44.7728 3.60536 6.95931
upperback 13.2241 8.01478 3.66355
thorax -5.52356 3.95387 -2.81009
lowerneck -12.833 -12.2727 -14.6345
upperneck 20.9704 -15.2518 8.33512
head 10.6604 -7.2079 3.15274
rclavicle 1.52667e-013 -1.27222e-014
rhumerus 33.423 -4.00933 -72.4471
rradius 18.0809
rwrist 36.7024
rhand -40.2283 0.690708
rfingers 7.12502
rthumb -13.1879 -28.8722
lclavicle 1.52667e-013 -1.27222e-014
lhumerus -26.0131 -44.6662 100.188
lradius 100.97
lwrist -12.7002
lhand -40.9533 17.2025
lfingers 7.12502
lthumb -13.8866 46.7189
rfemur -87.003 -30.9805 30.9102
rtibia 83.3054
rfoot -22.6469 4.30253
rtoes 3.05548
lfemur -79.5079 0.430466 -27.3375
ltibia 74.9438
lfoot -16.9049 -9.84116
ltoes -0.422092
311
root 1.96453 14.6032 5.90851 29.6467 28.8805 7.06191
lowerback 45.0445 3.65904 6.917
upperback 13.2507 8.09476 3.77253
thorax -5.5812 3.9822 -2.71538
lowerneck -12.6698 -12.3009 -14.9445
upperneck 20.8704 -15.309 8.6333
head 10.6559 -7.23273 3.30154
rclavicle 9.54166e-014 -9.06458e-014
rhumerus 33.602 -4.50867 -72.7766
rradius 17.8964
rwrist 38.029
rhand -40.9581 0.543141
rfingers 7.12502
rthumb -13.8913 -28.9729
lclavicle 9.54166e-014 -9.06458e-014
lhumerus -26.1122 -44.2394 100.483
lradius 101.362
lwrist -12.606
lhand -40.6703 16.295
lfingers 7.12502
lthumb -13.6139 45.8298
rfemur -87.6798 -31.1998 31.1275
rtibia 84.5834
rfoot -23.2487 4.26535
rtoes 2.62881
lfemur -80.1537 0.53463 -27.3299
ltibia 76.2973
lfoot -17.5077 -9.98638
ltoes 1.55016
312
root 1.9654 14.4913 5.92509 29.4276 29.009 7.01805
lowerback 45.303 3.66061 6.97694
upperback 13.305 8.15774 3.90473
thorax -5.59485 4.00742 -2.63627
lowerneck -12.5708 -12.3052 -15.0964
upperneck 20.7289 -15.2986 8.6832
head 10.6028 -7.23906 3.34849
rclavicle -1.01778e-013 2.94201e-014
rhumerus 33.7866 -4.96131 -72.8819
rradius 17.7496
rwrist 39.4364
rhand -41.4337 0.174508
rfingers 7.12502
rthumb -14.3496 -29.3096
lclavicle -1.01778e-013 2.94201e-014
lhumerus -26.3426 -44.1886 100.655
lradius 101.933
lwrist -12.0631
lhand -41.7913 16.6897
lfingers 7.12502
lthumb -14.6941 46.149
rfemur -88.3158 -31.4887 31.3213
rtibia 85.8655
rfoot -23.6794 4.27854
rtoes 2.44999
lfemur -80.704 0.547879 -27.2753
ltibia 77.5961
lfoot -18.1093 -10.1479
ltoes 4.14286
313
root 1.96855 14.3818 5.93841 29.2061 29.1085 7.08294
lowerback 45.5766 3.64472 6.98884
upperback 13.375 8.181 4.01928
thorax -5.60041 4.01582 -2.53659
lowerneck -12.5884 -12.3068 -15.1752
upperneck 20.7079 -15.2297 8.48116
head 10.5788 -7.23293 3.29977
rclavicle 2.03555e-013 -2.06736e-014
rhumerus 33.952 -5.2725 -72.8108
rradius 17.6554
rwrist 40.8307
rhand -41.7428 -0.142158
rfingers 7.12502
rthumb -14.6474 -29.6048
lclavicle 2.03555e-013 -2.06736e-014
lhumerus -26.665 -44.2041 100.968
lradius 102.587
lwrist -11.3715
lhand -41.6249 16.5757
lfingers 7.12502
lthumb -14.5338 46.0466
rfemur -88.8761 -31.8224 31.3442
rtibia 87.1255
rfoot -24.1097 4.39177
rtoes 2.33683
lfemur -81.146 0.557537 -27.3757
ltibia 78.82
lfoot -19.198 -9.7146
ltoes 0.276613
314
root 1.96652 14.2707 5.95281 29.0826 29.1243 7.28324
lowerback 45.8029 3.6861 6.81671
upperback 13.4628 8.18441 4.08606
thorax -5.59217 4.01521 -2.38798
lowerneck -12.666 -12.3241 -15.3435
upperneck 20.7063 -15.2077 8.48867
head 10.6061 -7.23234 3.32621
rclavicle 5.40694e-014 -4.05521e-014
rhumerus 34.1595 -5.78059 -73.1661
rradius 17.4975
rwrist 42.1871
rhand -42.3306 -0.124797
rfingers 7.12502
rthumb -15.2137 -29.5454
lclavicle 5.40694e-014 -4.05521e-014
lhumerus -26.7685 -44.0303 101.225
lradius 102.982
lwrist -10.7832
lhand -43.7205 17.4096
lfingers 7.12502
lthumb -16.5521 46.7237
rfemur -89.488 -32.1096 31.2705
rtibia 88.3684
rfoot -24.5959 4.35528
rtoes 1.54211
lfemur -81.6217 0.636151 -27.6475
ltibia 80.0159
lfoot -21.1635 -7.84872
ltoes -15.0654
315
root 1.96077 14.1782 5.96506 28.9438 29.1955 7.38606
lowerback 45.9688 3.68351 6.71399
upperback 13.5776 8.15546 4.11948
thorax -5.52507 4.00655 -2.29032
lowerneck -12.7556 -12.3245 -15.5872
upperneck 20.6141 -15.2196 8.81396
head 10.6417 -7.223 3.46968
rclavicle -5.40694e-014 2.54444e-014
rhumerus 34.4852 -6.67081 -74.0726
rradius 17.1785
rwrist 43.8772
rhand -42.8723 0.261404
rfingers 7.12502
rthumb -15.7354 -29.1189
lclavicle -5.40694e-014 2.54444e-014
lhumerus -26.6007 -43.7146 101.135
lradius 103.149
lwrist -10.6313
lhand -44.1695 18.7267
lfingers 7.12502
lthumb -16.9843 48.0041
rfemur -89.9738 -32.3534 31.3116
rtibia 89.4929
rfoot -25.1216 4.24072
rtoes 1.04835
lfemur -82.0255 0.696556 -27.7639
ltibia 81.1119
lfoot -19.4705 -9.3096
ltoes -6.0037
316
root 1.95727 14.0713 5.97871 28.752 29.4247 7.32226
lowerback 46.077 3.60887 6.84448
upperback 13.6487 8.14244 4.18862
thorax -5.46573 4.00695 -2.27397
lowerneck -12.7591 -12.3095 -15.6048
upperneck 20.4826 -15.2059 8.88118
head 10.5998 -7.21373 3.49844
rclavicle -3.81667e-014 3.26007e-014
rhumerus 34.5752 -6.7063 -74.1082
rradius 16.9259
rwrist 44.2475
rhand -43.2725 0.340215
rfingers 7.12502
rthumb -16.1208 -29.0093
lclavicle -3.81667e-014 3.26007e-014
lhumerus -26.4802 -43.513 101.035
lradius 103.325
lwrist -10.7832
lhand -44.3799 18.2489
lfingers 7.12502
lthumb -17.1868 47.5088
rfemur -90.541 -32.6224 31.5381
rtibia 90.6829
rfoot -25.5754 4.10619
rtoes 1.02383
lfemur -82.5695 0.677126 -27.6511
ltibia 82.2872
lfoot -19.8452 -9.54263
ltoes -3.82451
317
root 1.95646 13.9624 5.98945 28.5419 29.6369 7.20327
lowerback 46.1694 3.53674 7.0629
upperback 13.6908 8.16608 4.24282
thorax -5.41888 4.02499 -2.33094
lowerneck -12.7478 -12.3055 -15.5125
upperneck 20.4515 -15.2019 8.80528
head 10.5706 -7.21322 3.45962
rclavicle -3.81667e-014 -6.83819e-014
rhumerus 34.5283 -6.43157 -73.8182
rradius 16.7389
rwrist 44.0167
rhand -43.7247 -0.0561282
rfingers 7.12502
rthumb -16.5562 -29.3699
lclavicle -3.81667e-014 -6.83819e-014
lhumerus -26.4786 -43.4322 101.014
lradius 103.589
lwrist -11.0368
lhand -44.6511 18.3766
lfingers 7.12502
lthumb -17.4479 47.6136
rfemur -91.1283 -32.8362 31.7898
rtibia 91.8349
rfoot -25.8298 3.89443
rtoes 1.09351
lfemur -83.1374 0.66421 -27.4904
ltibia 83.4729
lfoot -20.3287 -9.64724
ltoes -2.85026
318
root 1.95875 13.852 5.99986 28.4178 29.7382 7.14684
lowerback 46.1807 3.52485 7.15975
upperback 13.726 8.20094 4.30135
thorax -5.37592 4.04461 -2.32721
lowerneck -12.699 -12.2974 -15.5775
upperneck 20.4785 -15.1865 8.82104
head 10.5768 -7.20992 3.48001
rclavicle 5.08889e-014 5.48646e-014
rhumerus 34.5098 -6.64959 -73.9436
rradius 16.4885
rwrist 44.6206
rhand -44.2427 0.00817194
rfingers 7.12502
rthumb -17.0548 -29.2632
lclavicle 5.08889e-014 5.48646e-014
lhumerus -26.4836 -43.2687 101.06
lradius 103.812
lwrist -11.5848
lhand -44.9254 19.0288
lfingers 7.12502
lthumb -17.7118 48.2421
rfemur -91.7437 -32.9709 31.9453
rtibia 92.9521
rfoot -26.1169 3.67922
rtoes 0.759046
lfemur -83.743 0.697138 -27.459
ltibia 84.6675
lfoot -20.9401 -9.49102
ltoes -3.4877
